# xmcd CD database file
#
# Track frame offsets:
#	150
#	21262
#	46387
#	69037
#	98587
#	116962
#	155962
#
# Disc length: 2597 seconds
#
# Revision: 0
# Processed by: cddbd v1.5.2PL0 Copyright (c) Steve Scherf et al.
# Submitted via: CDex 1.70beta2
#
DISCID=580a2307
DTITLE=Gadjo loco - Métis' swing
DYEAR=2008
DGENRE=Jazz
TTITLE0=Minor swing
TTITLE1=Bluegrass
TTITLE2=Cesar swing
TTITLE3=Blue drag
TTITLE4=The house of the rising sun
TTITLE5=Ping panther
TTITLE6=G blues
EXTD=YEAR: 2008
EXTT0=
EXTT1=
EXTT2=
EXTT3=
EXTT4=
EXTT5=
EXTT6=
PLAYORDER=
